<?xml version="1.0" encoding="UTF-8"?>
<!DOCTYPE svg PUBLIC "-//W3C//DTD SVG 1.1//EN" "http://www.w3.org/Graphics/SVG/1.1/DTD/svg11.dtd">
<!-- Creator: CorelDRAW (Versão de avaliação) -->
<svg xmlns="http://www.w3.org/2000/svg" xml:space="preserve" width="297mm" height="210mm" version="1.1" style="shape-rendering:geometricPrecision; text-rendering:geometricPrecision; image-rendering:optimizeQuality; fill-rule:evenodd; clip-rule:evenodd"
viewBox="0 0 29700 21000"
 xmlns:xlink="http://www.w3.org/1999/xlink"
 xmlns:xodm="http://www.corel.com/coreldraw/odm/2003">
 <defs>
  <style type="text/css">
   <![CDATA[
    .str0 {stroke:#FEFEFE;stroke-width:1000;stroke-miterlimit:22.9256}
    .fil0 {fill:none}
    .fil1 {fill:#FEFEFE;fill-rule:nonzero}
   ]]>
  </style>
 </defs>
 <g id="Camada_x0020_1">
  <metadata id="CorelCorpID_0Corel-Layer"/>
  <circle class="fil0 str0" cx="14012.02" cy="10097.76" r="7882.01"/>
  <path class="fil1" d="M13773.91 8098.45l0 145.22c-731.44,961.84 -1460.86,1924.46 -2208.5,2873.85l-2193.69 -2874.9 0 -144.08 0 -144.08 0 -936.07 0 -144.08 0 -143.99 0.08 -0.09 2200.97 2884.64 2201.05 -2884.64 0.09 0.09 0 143.9 0 144.08 0 935.99 0 144.16zm238.11 -1262.88l1066.13 0 0 6524.37 -1066.13 0 0 -6524.37zm-5925.61 0l1066.12 0 0 6524.37 -1066.12 0 0 -6524.37z"/>
  <path class="fil1" d="M16323.12 12093.69l4121.13 0 0 1033.97 -4121.13 0 0 -1033.97zm0 -2629.16l2351.61 0 0 1033.96 -2351.61 0 0 -1033.96zm0 -2629.17l4121.13 0 0 1033.96 -4121.13 0 0 -1033.96z"/>
 </g>
</svg>
