<?xml version="1.0" encoding="UTF-8"?>
<!DOCTYPE svg PUBLIC "-//W3C//DTD SVG 1.1//EN" "http://www.w3.org/Graphics/SVG/1.1/DTD/svg11.dtd">
<!-- Creator: CorelDRAW (Versão de avaliação) -->
<svg xmlns="http://www.w3.org/2000/svg" xml:space="preserve" width="297mm" height="210mm" version="1.1" style="shape-rendering:geometricPrecision; text-rendering:geometricPrecision; image-rendering:optimizeQuality; fill-rule:evenodd; clip-rule:evenodd"
viewBox="0 0 29700 21000"
 xmlns:xlink="http://www.w3.org/1999/xlink"
 xmlns:xodm="http://www.corel.com/coreldraw/odm/2003"
 data-imageid="knowledge-flatline"
 imageName="Knowledge">
 <defs>
  <style type="text/css">
   <![CDATA[
    .fil1 {fill:url(#id0)}
    .fil0 {fill:url(#id1);fill-rule:nonzero}
    .fil2 {fill:url(#id2);fill-rule:nonzero}
   ]]>
  </style>
  <linearGradient id="id0" gradientUnits="userSpaceOnUse" x1="3934.27" y1="16315.12" x2="26299.56" y2="16315.12">
   <stop offset="0" style="stop-opacity:1; stop-color:#436DB3"/>
   <stop offset="1" style="stop-opacity:1; stop-color:#96569C"/>
  </linearGradient>
  <linearGradient id="id1" gradientUnits="userSpaceOnUse" xlink:href="#id0" x1="4171.03" y1="14693.66" x2="26062.8" y2="14693.66">
  </linearGradient>
  <linearGradient id="id2" gradientUnits="userSpaceOnUse" x1="11872.66" y1="7069.51" x2="20217.07" y2="6979.57">
   <stop offset="0" style="stop-opacity:1; stop-color:#436DB3"/>
   <stop offset="0.321569" style="stop-opacity:1; stop-color:#6C62A8"/>
   <stop offset="1" style="stop-opacity:1; stop-color:#96569C"/>
  </linearGradient>
 </defs>
 <g id="Camada_x0020_1">
  <metadata id="CorelCorpID_0Corel-Layer"/>
  <g id="_2019206225952">
   <path class="fil0" d="M8812.3 14691.49c-31.7,-17.85 -61.69,-31.13 -90.53,-38.6 -28.81,-8.09 -57.08,-12.14 -85.31,-12.14 -100.3,0 -185.07,42.08 -253.67,126.28 -68.6,83.59 -103.2,189.65 -103.2,317.08 0,119.34 29.99,219.07 90.54,298.61 60.5,79.59 133.71,119.34 220.78,119.34 34.6,0 70.35,-9.19 107.24,-27.66 36.89,-19.04 74.93,-47.27 114.15,-85.92l0 -696.99zm11467.12 701.04l1921.18 0 0 482.01 -1921.18 0 0 -482.01zm0 -1225.66l1096.27 0 0 482.01 -1096.27 0 0 -482.01zm0 -1225.65l1921.18 0 0 482.01 -1921.18 0 0 -482.01zm-13457.01 519.92l0 67.7c-340.98,448.38 -681.02,897.14 -1029.55,1339.72l-1022.65 -1340.21 0 -67.17 0 -67.17 0 -436.37 0 -67.17 0 -67.12 0.04 -0.04 1026.04 1344.75 1026.08 -1344.75 0.04 0.04 0 67.08 0 67.17 0 436.33 0 67.21zm111 -588.72l497 0 0 3041.5 -497 0 0 -3041.5zm-2762.38 0l497 0 0 3041.5 -497 0 0 -3041.5zm5170.51 1432.83l0 951.23c0,119.34 2.29,219.64 6.9,300.94 4.62,80.73 10.95,149.9 20.19,207.54l-490.63 134.91 -47.27 -144.71c-66.27,49.03 -131.43,85.92 -195.41,109.53 -63.45,23.66 -130.29,35.18 -200.07,35.18 -196.6,0 -361.49,-78.4 -494.64,-234.63 -133.76,-156.81 -200.64,-351.68 -200.64,-584.6 0,-245.58 74.93,-448.51 224.83,-608.21 149.9,-159.71 339.59,-239.82 568.46,-239.82 52.46,0 107.82,7.47 165.46,21.9 57.65,14.42 121.06,36.89 190.84,67.45l451.98 -16.71zm934.52 1521.98l-529.24 0 0 -1521.98 488.88 0 0 254.81c80.73,-99.77 167.22,-174.12 258.28,-223.11 91.11,-49.02 190.27,-73.21 296.9,-73.21 161.42,0 283.66,46.08 366.67,138.34 83.59,92.25 125.1,226.58 125.1,404.14l0 1021.01 -525.76 0 0 -872.26c0,-80.16 -16.14,-140.09 -49.03,-180.46 -32.28,-40.94 -80.69,-61.12 -145.28,-61.12 -91.64,0 -162.56,31.13 -212.16,92.83 -49.56,62.26 -74.36,152.18 -74.36,270.37l0 750.64zm2373.53 -1135.74c-31.71,-17.85 -61.69,-31.13 -90.54,-38.6 -28.8,-8.09 -57.07,-12.14 -85.3,-12.14 -100.3,0 -185.08,42.08 -253.67,126.28 -68.6,83.59 -103.2,189.65 -103.2,317.08 0,119.34 29.98,219.07 90.53,298.61 60.51,79.59 133.72,119.34 220.78,119.34 34.61,0 70.35,-9.19 107.25,-27.66 36.89,-19.04 74.93,-47.27 114.15,-85.92l0 -696.99zm529.23 -386.24l0 951.23c0,119.34 2.29,219.64 6.91,300.94 4.62,80.73 10.95,149.9 20.18,207.54l-490.63 134.91 -47.27 -144.71c-66.27,49.03 -131.43,85.92 -195.41,109.53 -63.45,23.66 -130.29,35.18 -200.07,35.18 -196.59,0 -361.48,-78.4 -494.63,-234.63 -133.76,-156.81 -200.64,-351.68 -200.64,-584.6 0,-245.58 74.93,-448.51 224.83,-608.21 149.89,-159.71 339.58,-239.82 568.46,-239.82 52.45,0 107.81,7.47 165.46,21.9 57.65,14.42 121.05,36.89 190.83,67.45l451.98 -16.71zm1384.22 386.24c-31.7,-17.85 -61.69,-31.13 -90.53,-38.6 -28.81,-8.09 -57.08,-12.14 -85.31,-12.14 -100.3,0 -185.07,42.08 -253.67,125.67 -68.6,84.2 -103.2,189.69 -103.2,317.12 0,119.34 29.99,219.07 90.53,298.61 60.51,78.97 133.72,118.77 220.79,118.77 33.46,0 69.78,-9.24 107.24,-28.81 38.04,-19.03 76.07,-47.31 114.15,-84.2l0 -696.42zm529.24 -386.24l0 1378.98c0,140.1 -6.95,245.05 -20.18,315.94 -13.85,70.35 -35.75,134.9 -65.74,193.73 -63.41,121.63 -155.09,213.88 -275.57,276.14 -120.48,62.84 -266.33,93.97 -437.56,93.97 -102.63,0 -206.4,-11.52 -311.89,-33.99 -104.95,-22.51 -216.77,-57.08 -334.97,-104.96l-6.9 -421.42c112.96,60.55 215.59,104.92 307.84,133.76 92.25,28.23 179.32,42.65 260.58,42.65 118.19,0 210.44,-28.23 275.56,-84.73 65.17,-56.5 98.02,-136.09 98.02,-238.68l0 -102.62c-60.51,38.03 -121.06,66.3 -181.03,84.16 -59.37,17.89 -122.77,27.08 -189.08,27.08 -215.64,0 -389.72,-72.06 -521.76,-216.16 -132.58,-144.14 -198.89,-333.83 -198.89,-569.03 0,-244.44 74.93,-446.22 224.83,-607.07 149.9,-160.28 339.59,-240.39 568.46,-240.39 52.46,0 107.82,7.47 165.46,21.9 57.65,14.42 121.06,36.89 190.84,67.45l451.98 -16.71zm814.61 619.16l659.53 -20.18 0 -23.66c0,-80.12 -28.23,-145.85 -84.16,-197.17 -56.51,-51.27 -127.43,-77.21 -212.74,-77.21 -95.11,0 -175.27,27.66 -239.25,83.59 -64.02,55.89 -104.91,134.33 -123.38,234.63zm1008.88 359.73l-58.79 467.55c-103.77,49.02 -205.83,85.91 -306.13,109.57 -100.3,23.61 -201.21,35.14 -303.8,35.14 -253.67,0 -457.78,-72.64 -613.44,-218.5 -155.09,-145.85 -232.92,-336.11 -232.92,-570.17 0,-244.44 84.78,-450.84 254.82,-619.16 170.08,-168.37 377.05,-252.53 620.34,-252.53 208.12,0 378.77,61.69 512.53,185.07 133.19,123.39 200.03,283.05 200.03,479.07 0,29.99 -2.29,78.4 -6.9,145.28l-1.72 9.81 -47.27 68.59 -1037.15 28.85c8.05,102.63 50.74,186.22 127.96,250.2 77.83,64.02 175.84,95.72 293.46,95.72 83.59,0 175.84,-17.9 277.9,-54.22 101.44,-35.74 208.69,-89.35 321.08,-160.27zm909.76 543.09l-532.71 0 0 -1521.98 495.82 0 9.81 266.91c60.5,-106.68 132,-183.89 213.3,-232.35 81.26,-48.41 182.75,-72.64 304.37,-72.64l42.08 0 0 567.32 -55.31 0 -59.41 0c-164.85,0 -276.14,18.99 -332.64,56.46 -57.08,38.08 -85.31,128.57 -85.31,272.71l0 663.57zm5791.15 -1135.74c-31.7,-17.85 -61.69,-31.13 -90.54,-38.6 -28.8,-8.09 -57.07,-12.14 -85.3,-12.14 -100.3,0 -185.08,42.08 -253.67,126.28 -68.6,83.59 -103.2,189.65 -103.2,317.08 0,119.34 29.99,219.07 90.53,298.61 60.51,79.59 133.72,119.34 220.78,119.34 33.46,0 69.17,-6.9 105.49,-21.33 36.94,-13.8 75.54,-35.74 115.91,-65.12l0 -724.12zm529.24 -1347.89l0 2483.63 -463.55 72.64 -20.14 -118.2c-74.39,40.37 -147.61,70.36 -219.68,89.35 -72.64,19.04 -145.85,28.85 -220.21,28.85 -212.73,0 -379.34,-70.35 -498.67,-211.02 -119.34,-140.66 -179.32,-335.5 -179.32,-584.56 0,-261.18 70.35,-470.44 210.45,-628.43 140.66,-157.37 326.31,-236.35 557.47,-236.35 54.21,0 106.1,5.19 155.66,16.14 49.59,10.38 99.15,27.09 148.75,49.6l0 -889.01 529.24 -72.64zm1391.12 961.65l525.76 0 0 1521.98 -488.3 72.64 0 -297.47c-82.44,101.45 -168.32,176.41 -258.86,224.83 -89.92,48.41 -188.5,72.64 -295.75,72.64 -160.84,0 -283.04,-46.13 -367.2,-138.38 -83.64,-92.82 -125.72,-227.73 -125.72,-405.85l0 -1050.39 529.24 0 0 901.63c0,80.16 16.18,140.71 49.03,181.6 32.27,40.94 80.69,61.69 145.28,61.69 92.25,0 162.56,-31.13 212.16,-93.96 49.56,-62.27 74.36,-152.19 74.36,-269.24l0 -781.72z"/>
   <path class="fil1" d="M3934.27 16166.16l9530.21 0 0 297.92 -9530.21 0 0 -297.92zm11182.64 0l11182.65 0 0 297.92 -11182.65 0 0 -297.92z"/>
  </g>
  <path class="fil2" d="M14805.06 5772.5l0 92.16c-464.17,610.38 -927.06,1221.25 -1401.51,1823.73l-1392.1 -1824.4 0 -91.43 0 -91.43 0 -594.03 0 -91.43 0 -91.38 0.05 -0.05 1396.72 1830.57 1396.78 -1830.57 0.06 0.05 0 91.32 0 91.43 0 593.98 0 91.48zm6407.36 1235.33c0,-3365.58 -2729.93,-6095.51 -6095.51,-6095.51 -3365.58,0 -6095.51,2729.93 -6095.51,6095.51 0,3365.58 2729.93,6095.51 6095.51,6095.51 3365.58,0 6095.51,-2729.93 6095.51,-6095.51zm-995.05 0c0,2816.18 -2284.28,5100.46 -5100.46,5100.46 -2816.18,0 -5100.46,-2284.28 -5100.46,-5100.46 0,-2816.18 2284.28,-5100.46 5100.46,-5100.46 2816.18,0 5100.46,2284.28 5100.46,5100.46zm-5261.21 -2036.75l676.56 0 0 4140.34 -676.56 0 0 -4140.34zm-3760.36 0l676.55 0 0 4140.34 -676.55 0 0 -4140.34zm5226.97 3336.78l2615.25 0 0 656.15 -2615.25 0 0 -656.15zm0 -1668.45l1492.32 0 0 656.15 -1492.32 0 0 -656.15zm0 -1668.46l2615.25 0 0 656.15 -2615.25 0 0 -656.15z"/>
 </g>
</svg>
